<svg xmlns="http://www.w3.org/2000/svg" viewBox="0 0 60.5 124"><defs><style>.cls-1{fill:#daf3fa;}.cls-2{fill:#33c4e5;}</style></defs><title>Asset 11</title><g id="Layer_2" data-name="Layer 2"><g id="Layer_1-2" data-name="Layer 1"><path class="cls-1" d="M39.2,5.6c7.8,0,14.6,6.7,14.6,15.1S47,35.8,39.2,35.8a15.1,15.1,0,0,1,0-30.2Z"/><path class="cls-1" d="M60.5,111.7a15.7,15.7,0,0,1-2.3,3.4c-5.6,5.6-11.7,8.9-19.5,8.9a76.7,76.7,0,0,1-10.7-.5,16.1,16.1,0,0,1-6.6-3.6c-3.6-3-6.4-7.7-5.7-12.7S16.8,96.6,17.9,91c1.7-9.5,3.4-18.5,5.1-28V61.4c0-4-1.1-5.1-5.1-5.6-1.1-.4-2.3-.5-3.4-.8s-1.7-2.5-4.2-2.9a5.9,5.9,0,0,1-.2-1.4c0-1.1,1.1-2.2,3.4-2.8H44.8c3.4,0,5.6,1.7,5.6,5.1a48.3,48.3,0,0,1-1.1,8.4C47.6,72,45.4,82.6,43.7,93.3c-.6,3.3-1.1,7.2-1.7,10.6a21.7,21.7,0,0,0,.2,3.6,7.4,7.4,0,0,0,.4,1.4,4.1,4.1,0,0,0,4.4,3.4l2.9-.9,2.7-.8c1.2-.6,2.3-1.7,3.9-2.2A3.2,3.2,0,0,1,60.5,111.7Z"/><path class="cls-2" d="M30.4,122.2a72.4,72.4,0,0,1-9.2-.4l-1.7-.2h-.1a19.2,19.2,0,0,1-9.7-6.2c-3.2-3.8-4.7-8.1-4.1-12.1A157.6,157.6,0,0,1,7.9,86.9c.8-4.8,1.7-9.5,2.5-14.1s1.6-9,2.5-13.7V57.6a8.8,8.8,0,0,0-.2-2c-.2-.6-.4-1.2-2.7-1.6H9.1l-2.2-.5-2.8-.6H3.8C1.2,51.3,0,49.6,0,47s1.8-3.9,4.8-4.6H36.6c3.9,0,6.6,2,7.3,5.3a7.8,7.8,0,0,1,.2,1.6A43.4,43.4,0,0,1,42.9,58c-.8,5.3-1.8,10.7-2.8,16s-1.9,10.5-2.8,15.8c-.2,1.6-.5,3.3-.8,5.1s-.5,3.7-.8,5.4a15.3,15.3,0,0,0,.4,4.3h.1a2.2,2.2,0,0,0,2.3,1.9l2.3-.6.9-.3,2-.6.9-.6a10,10,0,0,1,3.1-1.7h.2a4.8,4.8,0,0,1,4.2.8,5.4,5.4,0,0,1,2,4.4v.4l-.2.4-1.7-.8,1.7.9a16.3,16.3,0,0,1-2.5,3.8h-.1C44.8,119.2,38.2,122.2,30.4,122.2Zm-10.3-4.3,1.5.2a87.2,87.2,0,0,0,8.8.3c6.7,0,12.5-2.7,18.2-8.3h.1a11.1,11.1,0,0,0,1.6-2.4,1.6,1.6,0,0,0-.5-1,1.3,1.3,0,0,0-.9-.2,10.5,10.5,0,0,0-2.1,1.2l-1.5,1H45l-2.3.6-.8.3-2.5.7h-.6a6.1,6.1,0,0,1-6.3-4.7,18.1,18.1,0,0,1-.6-5.6h0v-.2c.3-1.7.6-3.6.9-5.5s.5-3.5.8-5.1c.8-5.3,1.8-10.7,2.8-15.9s1.9-10.7,2.8-16h0a45,45,0,0,0,1.1-8.1c0-.3-.1-.6-.1-.9s-1.5-2.2-3.6-2.2H5.5a3.1,3.1,0,0,0-1.7.9c0,.8,0,1.3,1.6,2.1a8,8,0,0,0,2.1.5,14.7,14.7,0,0,1,2.7.6h.4c2.4.5,4.9,1.3,5.7,4.3a9.7,9.7,0,0,1,.4,3.1v1.9h-.1c-.8,4.8-1.6,9.4-2.5,13.9s-1.7,9.3-2.5,14.1h0a151.6,151.6,0,0,0-2.2,16.1h0C8.7,108.3,13.1,116.4,20.1,117.9Z"/><path class="cls-2" d="M31,34A17,17,0,0,1,31,0c9.1,0,16.4,7.6,16.4,17S40.1,34,31,34ZM31,3.8a13.2,13.2,0,0,0,0,26.4c6.8,0,12.6-6,12.6-13.2S37.8,3.8,31,3.8Z"/></g></g></svg>