<svg xmlns="http://www.w3.org/2000/svg" viewBox="0 0 143.3 293.9"><defs><style>.cls-1{fill:#daf3fa;}.cls-2{fill:#33c4e5;}</style></defs><title>featureOne-description_1</title><g id="Layer_2" data-name="Layer 2"><g id="Layer_1-2" data-name="Layer 1"><path class="cls-1" d="M92.9,13.3c18.6,0,34.5,16,34.5,35.8S111.5,84.9,92.9,84.9a35.8,35.8,0,0,1,0-71.6Z"/><path class="cls-1" d="M143.3,264.7a28.4,28.4,0,0,1-5.3,8c-13.3,13.2-27.9,21.2-46.4,21.2-8,0-17.3,0-25.2-1.4-4.9-.9-10.6-3.9-15.6-8.3-8.5-7.3-15.2-18.4-13.6-30.1,1.4-13.3,2.7-25.2,5.3-38.4,4-22.6,8-43.8,12-66.3v-4c0-9.3-2.7-11.9-12-13.3a56.8,56.8,0,0,0-8.2-1.7c-1.1-4.1-4-5.9-9.9-6.9a11.5,11.5,0,0,1-.4-3.3c0-2.6,2.6-5.3,7.9-6.6h74.3c7.9,0,13.2,4,13.2,11.9s-1.3,13.3-2.6,19.9c-4,25.2-9.3,50.4-13.3,75.6-1.3,7.9-2.6,17.2-4,25.1a50.8,50.8,0,0,0,.5,8.7,20.2,20.2,0,0,0,.9,3.3c1.3,5.3,5.3,7.9,10.6,7.9l6.8-2,6.4-1.9c2.7-1.4,5.3-4,9.3-5.4S143.3,259.4,143.3,264.7Z"/><path class="cls-2" d="M72.1,289.5a202.2,202.2,0,0,1-21.8-.8l-4.1-.6H46c-7.7-1.6-16.6-7.2-23-14.7s-11.1-19-9.7-28.7c1.3-13.2,2.6-25.3,5.3-38.7,2-11.4,4.1-22.6,6-33.4s3.9-21.4,5.9-32.5v-3.5a19.3,19.3,0,0,0-.5-4.9c-.4-1.5-.8-2.8-6.3-3.8l-1.3-.2h-.8a27.5,27.5,0,0,0-5.3-1.2,44.2,44.2,0,0,1-6.6-1.5l-.6-.2C2.7,121.5,0,117.5,0,111.4s4.2-9.2,11.4-11l.5-.2H86.7c9.3,0,15.7,4.7,17.3,12.5a17,17,0,0,1,.4,4c0,7-1.3,13.9-2.7,20.6-2,12.7-4.4,25.6-6.6,38s-4.7,25-6.6,37.5c-.7,3.8-1.3,7.9-1.9,12s-1.4,8.8-2,12.9,0,6.9,1.1,10.1v.3c.4,1.9,1.5,4.3,5.5,4.6l5.4-1.6,2.1-.6,4.7-1.4,2.2-1.5a31.5,31.5,0,0,1,7.4-4h.3a11.6,11.6,0,0,1,10.1,2,12.9,12.9,0,0,1,4.8,10.4v1l-.5,1-4-2,4,2a33.6,33.6,0,0,1-6.1,9.1l-.2.2C106.2,282.4,90.5,289.5,72.1,289.5ZM47.7,279.3l3.6.5a207.5,207.5,0,0,0,20.8.7c15.9,0,29.5-6.3,43.1-19.7v-.2a19.3,19.3,0,0,0,3.9-5.7,3.4,3.4,0,0,0-1.2-2.3,2.7,2.7,0,0,0-2.2-.4,24.6,24.6,0,0,0-5,2.8,21.6,21.6,0,0,1-3.6,2.2l-.5.3-5.4,1.6-2.1.6-5.8,1.8-.7.2H92c-7.5,0-13.1-4.2-14.9-11.2-1.5-4.6-1.5-9-1.5-13.2v-.8c.7-4.1,1.4-8.6,2.1-13.1s1.3-8.2,1.9-12c2-12.6,4.3-25.3,6.6-37.7s4.7-25.2,6.6-37.8v-.2c1.2-6.3,2.5-12.8,2.5-19a6.8,6.8,0,0,0-.2-2.1c-.7-3.6-3.6-5.4-8.5-5.4H13c-2.8.8-3.8,1.9-4,2.2,0,1.9.1,3.1,3.8,5.1a40.2,40.2,0,0,0,5,1,55.6,55.6,0,0,1,6.3,1.4l1,.2c5.6.9,11.6,2.9,13.6,10.1a29.8,29.8,0,0,1,.8,7.4v4.7l-5.9,32.9c-2,10.9-4,22-6,33.4h0c-2.7,13.1-4,25-5.3,38v.2C20.7,256.7,30.9,275.9,47.7,279.3Z"/><path class="cls-2" d="M73.4,80.6A40.3,40.3,0,0,1,73.4,0c21.5,0,39,18.1,39,40.3S94.9,80.6,73.4,80.6ZM73.4,9A31,31,0,0,0,42.1,40.3,31.4,31.4,0,0,0,73.4,71.6c16.3,0,30-14.4,30-31.3S89.7,9,73.4,9Z"/></g></g></svg>