<svg xmlns="http://www.w3.org/2000/svg" viewBox="0 0 363 190.5"><defs><style>.cls-1{fill:#daf3fa;}.cls-2{fill:#33c4e5;}.cls-3{opacity:0.2;}.cls-4{fill:#fff;}</style></defs><title>featureOne-Impact</title><g id="Layer_2" data-name="Layer 2"><g id="Layer_1-2" data-name="Layer 1"><path class="cls-1" d="M278.9,22.4H96.3a84.1,84.1,0,1,0,61.8,140.8h.1c34.6-22.7,58.7,0,58.8,0A84,84,0,1,0,278.9,22.4Z"/><path class="cls-2" d="M122.7,101a1.6,1.6,0,0,1-1.7,1.7H97.5a1.5,1.5,0,0,0-1.6,1.6v23.5a1.6,1.6,0,0,1-1.7,1.6H69.4a1.6,1.6,0,0,1-1.6-1.6V104.3a1.6,1.6,0,0,0-1.5-1.6H42.7a1.7,1.7,0,0,1-1.6-1.7V76.1a1.6,1.6,0,0,1,1.6-1.5H66.3A1.6,1.6,0,0,0,67.8,73V49.5A1.6,1.6,0,0,1,69.4,48H94.2a1.6,1.6,0,0,1,1.7,1.5V73a1.6,1.6,0,0,0,1.6,1.6H121a1.6,1.6,0,0,1,1.7,1.5Z"/><path class="cls-2" d="M246.1,107.9a19.2,19.2,0,1,1,19.1-19.3A19.2,19.2,0,0,1,246.1,107.9Z"/><path class="cls-2" d="M310.1,107.9a19.2,19.2,0,1,1,19.3-19.3A19.3,19.3,0,0,1,310.1,107.9Z"/><g class="cls-3"><path class="cls-4" d="M101.8,74.6a209.7,209.7,0,0,1-34,35.2v-5.5a1.6,1.6,0,0,0-1.5-1.6H42.7a1.7,1.7,0,0,1-1.6-1.7V76.1a1.6,1.6,0,0,1,1.6-1.5H66.3A1.6,1.6,0,0,0,67.8,73V49.5A1.6,1.6,0,0,1,69.4,48H94.2a1.6,1.6,0,0,1,1.7,1.5V73a1.6,1.6,0,0,0,1.6,1.6Z"/></g><path class="cls-2" d="M271.2,177.2a87.5,87.5,0,0,1-64.8-28.5c-8.9-5.7-17.8-8.7-26.4-9s-17.6,3.3-26.5,9a87.5,87.5,0,0,1-64.8,28.5A88.6,88.6,0,1,1,88.7,0H271.2a88.6,88.6,0,1,1,0,177.2ZM180,130.7h.1c10.5.3,21.2,3.9,31.7,10.8l.4.3.6.5a78.4,78.4,0,0,0,58.4,25.9A79.6,79.6,0,1,0,271.2,9H88.7a79.6,79.6,0,1,0,0,159.2,78.4,78.4,0,0,0,58.4-25.9l.6-.5.4-.3c10.5-6.9,21.2-10.5,31.7-10.8Z"/></g></g></svg>