<svg xmlns="http://www.w3.org/2000/svg" viewBox="0 0 288.8 288.8"><defs><style>.cls-1{fill:#daf3fa;}.cls-2{fill:#33c4e5;}.cls-3{opacity:0.2;}.cls-4{fill:#fff;}</style></defs><title>featureTwo-Compatibility</title><g id="Layer_2" data-name="Layer 2"><g id="Layer_1-2" data-name="Layer 1"><path class="cls-1" d="M155.3,21.7a133.6,133.6,0,1,0,0,267.1c73.7,0,133.5-59.9,133.5-133.6A133.5,133.5,0,0,0,155.3,21.7Z"/><path class="cls-2" d="M138.1,276.1C62,276.1,0,214.2,0,138S62,0,138.1,0,276.2,61.9,276.2,138A138.2,138.2,0,0,1,138.1,276.1ZM138.1,9C66.9,9,9,66.9,9,138a129.1,129.1,0,1,0,258.2,0C267.2,66.9,209.3,9,138.1,9Z"/><path class="cls-2" d="M115.2,200.6a14.2,14.2,0,0,1-10.4-4.4L67.6,159.1a14.2,14.2,0,0,1-4.3-10.3,14.8,14.8,0,0,1,25.2-10.6L115.2,165l72.5-72.6a15,15,0,0,1,10.4-4.3A14.9,14.9,0,0,1,212.9,103a14.3,14.3,0,0,1-4.4,10.3l-82.8,83A14.7,14.7,0,0,1,115.2,200.6Z"/><g class="cls-3"><path class="cls-4" d="M153.7,126.5a246.5,246.5,0,0,1-13.4,55.1l-14.6,14.7a14.7,14.7,0,0,1-10.5,4.3,14.2,14.2,0,0,1-10.4-4.4L67.6,159.1a14.2,14.2,0,0,1-4.3-10.3A14.7,14.7,0,0,1,78,133.9a14.7,14.7,0,0,1,10.5,4.3L115.2,165Z"/></g></g></g></svg>