<svg xmlns="http://www.w3.org/2000/svg" viewBox="0 0 353.7 309.1"><defs><style>.cls-1,.cls-2{fill:#daf3fa;}.cls-1,.cls-5,.cls-6{fill-rule:evenodd;}.cls-3,.cls-6{fill:#33c4e5;}.cls-4{opacity:0.2;}.cls-5{fill:#fff;}</style></defs><title>featureThree-Steps</title><g id="Layer_2" data-name="Layer 2"><g id="Layer_1-2" data-name="Layer 1"><path class="cls-1" d="M309,8.3A44.7,44.7,0,1,0,353.7,53,44.7,44.7,0,0,0,309,8.3Z"/><circle class="cls-2" cx="55.7" cy="264.4" r="44.7"/><circle class="cls-3" cx="44.7" cy="253.4" r="44.7"/><path class="cls-2" d="M274.7,271.4H258.8v-9h15.9a71.2,71.2,0,0,0,12.3-1l1.4,8.9A88.3,88.3,0,0,1,274.7,271.4Zm-24.9,0h-29v-9h29Zm-38,0h-29v-9h29Zm-38,0h-29v-9h29Zm-38,0H119.7v-9h16.1Zm161.9-3.2-2.5-8.7a63.5,63.5,0,0,0,23.7-12.6l5.9,6.7A70.3,70.3,0,0,1,297.7,268.2Zm33.9-21.5-7-5.7c5.8-7.2,9.1-15.4,9.4-23.9l9,.4A49,49,0,0,1,331.6,246.7Zm1.9-37.5a43.1,43.1,0,0,0-12.4-22.7l6.3-6.4c8,7.9,13.2,17.4,14.9,27.5Zm-18.8-28A64.1,64.1,0,0,0,290,170.5l1.9-8.8A74.9,74.9,0,0,1,320,173.9Zm-33.1-12c-2.2-.2-4.6-.3-6.9-.3H253.1v-9h21.6a67.9,67.9,0,0,1,7.8.4Zm-37.5-.3h-29v-9h29Zm-38,0h-29v-9h29Zm-38,0h-29v-9h29Zm-38,0h-29v-9h29Zm-38.2-.1a78.4,78.4,0,0,1-29.8-6.9l3.8-8.2a70.5,70.5,0,0,0,26.4,6.2ZM53.7,157.3a59.4,59.4,0,0,1-21.3-22.5l8-4.2a49.3,49.3,0,0,0,18.1,19.1ZM28.8,125.6a47.5,47.5,0,0,1-1.7-12.4,46.7,46.7,0,0,1,4.1-19l8.2,3.6a37.8,37.8,0,0,0-3.3,15.4,37,37,0,0,0,1.4,9.9ZM43.4,90.8,36,85.6A63.3,63.3,0,0,1,59.6,65.7l4.1,8A54.5,54.5,0,0,0,43.4,90.8Zm28-20.4-3-8.5a81.8,81.8,0,0,1,27-4.5h3v9h-3A74.1,74.1,0,0,0,71.4,70.4Zm179-4h-29v-9h29Zm-38,0h-29v-9h29Zm-38,0h-29v-9h29Zm-38,0h-29v-9h29Z"/><path class="cls-3" d="M257.8,257.9H241.9v-9h15.9a82.8,82.8,0,0,0,12.3-1l1.5,8.9A89.6,89.6,0,0,1,257.8,257.9Zm-24.9,0h-29v-9h29Zm-38,0h-29v-9h29Zm-38,0h-29v-9h29Zm-38,0h-16v-9h16Zm162-3.3-2.5-8.6A61.9,61.9,0,0,0,302,233.3l5.9,6.8A70.5,70.5,0,0,1,280.9,254.6Zm33.8-21.5-7-5.7a39.9,39.9,0,0,0,9.5-23.8l9,.3A49.3,49.3,0,0,1,314.7,233.1Zm1.9-37.5A42.2,42.2,0,0,0,304.2,173l6.3-6.4a50.9,50.9,0,0,1,15,27.4Zm-18.7-28A66.9,66.9,0,0,0,273.2,157l1.8-8.9a74.2,74.2,0,0,1,28.1,12.2Zm-33.1-11.9c-2.3-.2-4.6-.3-7-.3H236.2v-9h21.6l7.8.3Zm-37.6-.3h-29v-9h29Zm-38,0h-29v-9h29Zm-38,0h-29v-9h29Zm-38,0h-29v-9h29ZM75,155.3a78.4,78.4,0,0,1-29.7-7l3.7-8.2a70.5,70.5,0,0,0,26.4,6.2ZM36.8,143.8a59.7,59.7,0,0,1-21.3-22.6l8-4.1a51.4,51.4,0,0,0,18.1,19.1ZM11.9,112a47,47,0,0,1-1.7-12.4,45.9,45.9,0,0,1,4.1-18.9l8.2,3.6a37.3,37.3,0,0,0-3.3,15.3,37.7,37.7,0,0,0,1.4,10ZM26.5,77.2l-7.4-5.1a63.4,63.4,0,0,1,23.6-20l4.1,8.1A53.4,53.4,0,0,0,26.5,77.2Zm28-20.3-2.9-8.5a81,81,0,0,1,27-4.5h3v9h-3A71.7,71.7,0,0,0,54.5,56.9Zm179.1-4h-29v-9h29Zm-38,0h-29v-9h29Zm-38,0h-29v-9h29Zm-38,0h-29v-9h29Z"/><g class="cls-4"><path class="cls-5" d="M59.3,211.1a187.2,187.2,0,0,1-25.4,85.6,44.7,44.7,0,0,1,10.8-88A47,47,0,0,1,59.3,211.1Z"/></g><path class="cls-6" d="M300.7,0a44.7,44.7,0,1,0,44.7,44.7A44.7,44.7,0,0,0,300.7,0Z"/><g class="cls-4"><path class="cls-5" d="M275.8,42.5a5.1,5.1,0,0,0-1.5,3.7,5.6,5.6,0,0,0,1.5,3.7L288.9,63l.8.6a5.2,5.2,0,0,0,2.9.9,5.1,5.1,0,0,0,3.7-1.5l8.3-8.2c-3.6,11.5-7.8,22.8-12.4,33.8A44.7,44.7,0,0,1,300.7,0a43.7,43.7,0,0,1,16.2,3.1c-1.7,10.5-3.9,20.9-6.5,31.1L292.6,52l-9.4-9.5a5.3,5.3,0,0,0-7.4,0Z"/></g><path class="cls-5" d="M325.5,33.7l-24,24.1L296.3,63a5.1,5.1,0,0,1-3.7,1.5,5.2,5.2,0,0,1-2.9-.9l-.8-.6L275.8,49.9a5.6,5.6,0,0,1-1.5-3.7,5.2,5.2,0,0,1,8.9-3.7l9.4,9.5,25.6-25.6a5.1,5.1,0,0,1,7.4,0,5.6,5.6,0,0,1,1.5,3.7A4.8,4.8,0,0,1,325.5,33.7Z"/></g></g></svg>