<svg xmlns="http://www.w3.org/2000/svg" viewBox="0 0 424.9 254.4"><defs><style>.cls-1{fill:#daf3fa;}.cls-2{fill:#33c4e5;}.cls-3{fill:#fff;}.cls-4{opacity:0.2;}</style></defs><title>featureTwo-Performance</title><g id="Layer_2" data-name="Layer 2"><g id="Layer_1-2" data-name="Layer 1"><path class="cls-1" d="M219.8,21.7C106.8,22,15.9,115.1,15.9,228.2h0a7.6,7.6,0,0,0,7.6,7.5H69.6a8,8,0,0,0,8-8h0c0-78.7,63.2-143.8,142-144.2,75.8-.4,138.2,58.5,143.2,132.9.3,3.3.4,6.5.4,9.8v1.5a7.9,7.9,0,0,0,8,8h45.7a8,8,0,0,0,8-8v-1.5C424.9,113.3,332.8,21.5,219.8,21.7Z"/><path class="cls-2" d="M209,30.7a4.5,4.5,0,0,1-4.5-4.5V6.3a4.5,4.5,0,0,1,9,0V26.2A4.5,4.5,0,0,1,209,30.7Z"/><path class="cls-2" d="M356.6,61.1A208.1,208.1,0,0,0,208.9,0h-.5C93.5.3,0,94.9,0,210.9A12.1,12.1,0,0,0,12.1,223H58.6a12.1,12.1,0,0,0,12.1-12.1v-.4c0-76.7,61.7-139.4,137.5-139.8h.7A138.4,138.4,0,0,1,347.3,208.9a14.1,14.1,0,0,0,14,14.1H404a14.1,14.1,0,0,0,14-14.1A207.4,207.4,0,0,0,356.6,61.1ZM404,214H361.3a5.1,5.1,0,0,1-5-5.1A147.5,147.5,0,0,0,209,61.7h-.8c-80.8.4-146.5,67.2-146.5,148.8v.4a3.1,3.1,0,0,1-3.1,3.1H12.1A3.1,3.1,0,0,1,9,210.9a205.8,205.8,0,0,1,5.1-45.4l15.5,3.9h1.1a4.5,4.5,0,0,0,1.1-8.8l-15.5-3.9A203.1,203.1,0,0,1,51.7,86.4L64.1,96.7a4.6,4.6,0,0,0,2.9,1,4.4,4.4,0,0,0,3.5-1.6,4.5,4.5,0,0,0-.6-6.3L57.3,79.5a202,202,0,0,1,61.9-49l7.2,15.2a4.5,4.5,0,0,0,4.1,2.6,4.3,4.3,0,0,0,1.9-.4,4.6,4.6,0,0,0,2.2-6l-7.3-15.3A197.8,197.8,0,0,1,204.5,9.1V26.2a4.5,4.5,0,0,0,9,0V9.1a198.6,198.6,0,0,1,77.2,17.3l-7.3,15.5a4.6,4.6,0,0,0,2.2,6,4.3,4.3,0,0,0,1.9.4,4.5,4.5,0,0,0,4.1-2.6l7.3-15.4a201.3,201.3,0,0,1,51.3,37.2q5.7,5.7,10.8,11.7L348.2,89.8a4.4,4.4,0,0,0,2.8,7.9,4.6,4.6,0,0,0,2.9-1l12.8-10.6a198.2,198.2,0,0,1,35.4,70.6l-15.9,4a4.5,4.5,0,0,0,1.1,8.8h1.1l15.8-4a196.6,196.6,0,0,1,4.8,43.5A5.1,5.1,0,0,1,404,214Z"/><path class="cls-3" d="M209.5,254.4a44.3,44.3,0,0,1-20.3-4.8,46.7,46.7,0,0,1-19.9-63.9,50.1,50.1,0,0,1,9.4-12.1l.6-.5L296.5,71.6a16.9,16.9,0,0,1,21.8-.4,16.7,16.7,0,0,1,4.4,21.2l-71,136.5a48.2,48.2,0,0,1-42.2,25.5Z"/><path class="cls-2" d="M312.7,78.2a7.9,7.9,0,0,0-10.2.3L185.2,179.9l-.2.2a39.9,39.9,0,0,0-7.8,10,37.5,37.5,0,0,0,9.5,47.2,41,41,0,0,0,6.6,4.2c17.9,9.1,40.5,1.5,50.5-16.9L314.7,88.2A8,8,0,0,0,312.7,78.2ZM228.8,220.5a22,22,0,0,1-31.1,3.6,22.1,22.1,0,1,1,35.8-19.9A21.8,21.8,0,0,1,228.8,220.5Z"/><path class="cls-1" d="M230.1,194.8a22.1,22.1,0,0,0-34,21,22.5,22.5,0,0,0,3.4,9.6l-1.8-1.3a22.1,22.1,0,0,1,27.7-34.5A23.1,23.1,0,0,1,230.1,194.8Z"/><g class="cls-4"><path class="cls-3" d="M315.7,84.5a285.9,285.9,0,0,1-88.9,106.4,8.6,8.6,0,0,0-1.4-1.3,22.2,22.2,0,0,0-35.9,19.7,27.1,27.1,0,0,0,.9,4.1c-5.1,2.7-10.2,5.2-15.5,7.5a37.4,37.4,0,0,1,2.3-30.8,41.9,41.9,0,0,1,7.7-10l.3-.2L302.5,78.5a8,8,0,0,1,10.2-.3A8.3,8.3,0,0,1,315.7,84.5Z"/></g></g></g></svg>