<svg xmlns="http://www.w3.org/2000/svg" viewBox="0 0 284.5 283.6"><defs><style>.cls-1{fill:#daf3fa;}.cls-2{fill:#33c4e5;}</style></defs><title>featureOne-Brands</title><g id="Layer_2" data-name="Layer 2"><g id="Layer_1-2" data-name="Layer 1"><path class="cls-1" d="M281.9,125.2l-63,97.4c-1.9,3.6-5.7,6-9.8,7a15.1,15.1,0,0,1-11.8-2.3L74.2,147.4c-3.2-2.1-6-5.2-6.8-8.8l-2-7.3,122.4,79.5a15.1,15.1,0,0,0,11.8,2.3c4.1-1,7.9-3.4,9.8-7l63-97.4a16.5,16.5,0,0,0,2.5-6.9l2.7,1.7A15.8,15.8,0,0,1,281.9,125.2Z"/><path class="cls-1" d="M190,242l-18.4-11.9-13.7-8.9-83.2-54a32.2,32.2,0,0,1-12.9-15.4l-7.5-4.9a35.6,35.6,0,0,1-10.8-10.7,33.8,33.8,0,0,1-10.6-10.7l-4.4,15.8c-1.1,3.2-.3,7.1,1.2,10.3L81.9,258.4l6,12.4,2.2,4.5a14.4,14.4,0,0,0,8.3,7.6c3.8,1.1,8,1,11.3-1l80.8-39.6Z"/><path class="cls-1" d="M258.5,93.6,142.8,18.8a14.5,14.5,0,0,0-10.6-2.3L51.6,29.6A14.9,14.9,0,0,0,39.1,46.4l.4,1.9,22.1,78.1c.7,3.4,3.3,6.4,6.3,8.3l115.4,74.9a14.1,14.1,0,0,0,11,2.2c3.9-.9,7.5-3.2,9.2-6.6l59.1-91.3C267.1,107,265.1,98.3,258.5,93.6ZM123.3,88.9A23.3,23.3,0,1,1,84.2,63.7a22.9,22.9,0,0,1,32.1-6.9C127.3,63.8,130.5,78.4,123.3,88.9Z"/><path class="cls-2" d="M84.8,275.6a21.4,21.4,0,0,1-6.5-1h-.1a20.2,20.2,0,0,1-11.5-10.4L2.3,132.2A19.7,19.7,0,0,1,.7,117.9L20.9,44.4l22.9,81.4a27.6,27.6,0,0,0,3.3,7.7l.2.3a32.1,32.1,0,0,0,9.4,9.3l122.9,79.8h.2l8.5,4L93.9,273.2a18.7,18.7,0,0,1-5.1,2A17.5,17.5,0,0,1,84.8,275.6ZM81,266a11.1,11.1,0,0,0,5.9.4,5.4,5.4,0,0,0,2.3-1l.5-.2.7-.3,78.3-38.4L51.8,150.7a40.4,40.4,0,0,1-12-12l-.3-.4A33.8,33.8,0,0,1,35.1,128L21,78,9.3,120.7a10.7,10.7,0,0,0,1.1,7.6L74.8,260.2A10.7,10.7,0,0,0,81,266Z"/><path class="cls-2" d="M196.4,218a20.2,20.2,0,0,1-11.1-3.5L62.2,134.6c-4.5-2.9-7.7-7.1-8.6-11.4L30,39.8l-.5-2.4A20.3,20.3,0,0,1,46.6,14.3L132.4.4a20,20,0,0,1,14.6,3l123.7,80a20.1,20.1,0,0,1,5.5,27.7l-62.9,97.3a19.2,19.2,0,0,1-12.6,9.1h-.1A20.1,20.1,0,0,1,196.4,218ZM38.8,37.6l23.5,83.5c.5,2.1,2.3,4.3,4.8,6L190.3,207a10.4,10.4,0,0,0,8.3,1.7,10.2,10.2,0,0,0,6.8-4.7l.2-.4,63-97.3a11.2,11.2,0,0,0-3-15.5L142.1,11a10.6,10.6,0,0,0-7.9-1.8H134l-86,14a11.4,11.4,0,0,0-9.7,12.6ZM103,98.1a30.2,30.2,0,0,1-16-4.8,29.3,29.3,0,0,1,31.7-49.4A29.8,29.8,0,0,1,131.9,63a28.1,28.1,0,0,1-4.4,21.5,29,29,0,0,1-18.3,12.9A32.7,32.7,0,0,1,103,98.1Zm-.3-49.9A20.3,20.3,0,0,0,91.9,85.7a20.1,20.1,0,0,0,15.4,2.9,20.3,20.3,0,0,0,12.7-9v-.2A18.7,18.7,0,0,0,123,64.8a20.8,20.8,0,0,0-9.1-13.3A21.1,21.1,0,0,0,102.7,48.2Z"/></g></g></svg>