<svg xmlns="http://www.w3.org/2000/svg" viewBox="0 0 361.5 303.4"><defs><style>.cls-1{fill:#daf3fa;}.cls-2{fill:#33c4e5;}</style></defs><title>featureThree-Troubleshooting</title><g id="Layer_2" data-name="Layer 2"><g id="Layer_1-2" data-name="Layer 1"><path class="cls-1" d="M178.8,11.1,22.1,282.5a13.9,13.9,0,0,0,12.1,20.9H347.6a13.9,13.9,0,0,0,12-20.9L203,11.1A14,14,0,0,0,178.8,11.1Z"/><path class="cls-2" d="M311.2,289.4H17.6a17.5,17.5,0,0,1-15.2-8.8,17.2,17.2,0,0,1,0-17.5L149.2,8.8A17.5,17.5,0,0,1,164.4,0a17.2,17.2,0,0,1,15.2,8.8L326.4,263.1a17.6,17.6,0,0,1-15.2,26.3ZM164.4,9a8.4,8.4,0,0,0-7.4,4.3L10.2,267.6a8.1,8.1,0,0,0,0,8.5,8.4,8.4,0,0,0,7.4,4.3H311.2a8.4,8.4,0,0,0,7.4-4.3,8.1,8.1,0,0,0,0-8.5L171.8,13.3A8.4,8.4,0,0,0,164.4,9Z"/><path class="cls-2" d="M164.4,212.4c5.1,0,9.2,1.5,12.4,4.5a15.9,15.9,0,0,1,4.7,11.7,15.5,15.5,0,0,1-4.7,11.5,19,19,0,0,1-24.8,0,15.5,15.5,0,0,1-4.7-11.5A15.7,15.7,0,0,1,152,217C155.2,213.9,159.3,212.4,164.4,212.4Z"/><polygon class="cls-2" points="177 195.7 151.7 195.7 148.1 89 180.6 89 177 195.7"/></g></g></svg>