<svg xmlns="http://www.w3.org/2000/svg" viewBox="0 0 307.8 301.1"><defs><style>.cls-1{fill:#daf3fa;}.cls-2{fill:#33c4e5;}.cls-3{opacity:0.2;}.cls-4{fill:#fff;}</style></defs><title>featureTwo-SimpleSpec</title><g id="Layer_2" data-name="Layer 2"><g id="Layer_1-2" data-name="Layer 1"><rect class="cls-1" x="61.7" y="63.4" width="220.9" height="214.16" rx="19.8"/><path class="cls-2" d="M217.9,92.8V208.3a5.2,5.2,0,0,1-5.1,5.2H97.3a5.2,5.2,0,0,1-5.2-5.2V92.8a5.2,5.2,0,0,1,5.2-5.2H212.8A5.2,5.2,0,0,1,217.9,92.8Zm45,39v37.5h40.4a4.5,4.5,0,0,1,4.5,4.5,4.5,4.5,0,0,1-4.5,4.5H262.9v37.4h40.4a4.5,4.5,0,0,1,0,9H262.9v17a16.7,16.7,0,0,1-16.7,16.7h-17v38.2a4.5,4.5,0,0,1-9,0V258.4H182.7v38.2a4.5,4.5,0,1,1-8.9,0V258.4H136.3v38.2a4.5,4.5,0,1,1-9,0V258.4H89.9v38.2a4.5,4.5,0,0,1-9,0V258.4H59.4a16.7,16.7,0,0,1-16.7-16.7v-17H4.5a4.5,4.5,0,0,1,0-9H42.7V178.3H4.5A4.5,4.5,0,0,1,0,173.8a4.5,4.5,0,0,1,4.5-4.5H42.7V131.8H4.5A4.5,4.5,0,0,1,0,127.3a4.5,4.5,0,0,1,4.5-4.5H42.7V85.4H4.5a4.5,4.5,0,0,1,0-9H42.7v-17A16.7,16.7,0,0,1,59.4,42.7H80.9V4.5a4.5,4.5,0,0,1,9,0V42.7h37.4V4.5a4.5,4.5,0,1,1,9,0V42.7h37.5V4.5a4.5,4.5,0,1,1,8.9,0V42.7h37.5V4.5a4.5,4.5,0,0,1,9,0V42.7h17a16.7,16.7,0,0,1,16.7,16.7v17h40.4a4.5,4.5,0,0,1,0,9H262.9v37.4h40.4a4.5,4.5,0,0,1,4.5,4.5,4.5,4.5,0,0,1-4.5,4.5Zm-9-72.4a7.8,7.8,0,0,0-7.7-7.7H59.4a7.7,7.7,0,0,0-7.7,7.7V80.9h0v46.4h0v46.5h0v46.4h0v21.5a7.7,7.7,0,0,0,7.7,7.7H246.2a7.8,7.8,0,0,0,7.7-7.7Z"/><g class="cls-3"><path class="cls-4" d="M217.9,92.8v26.1A295.4,295.4,0,0,1,99.6,213.5H97.3a5.2,5.2,0,0,1-5.2-5.2V92.8a5.2,5.2,0,0,1,5.2-5.2H212.8A5.2,5.2,0,0,1,217.9,92.8Zm28.3-50.1h-17V4.5a4.5,4.5,0,0,0-9,0V42.7H182.7V4.5A4.5,4.5,0,0,0,178.2,0a4.5,4.5,0,0,0-4.5,4.5V42.7H136.3V4.5a4.5,4.5,0,1,0-9,0V42.7H89.9V4.5a4.5,4.5,0,0,0-9,0V42.7H59.4A16.7,16.7,0,0,0,42.7,59.4v17H4.5a4.5,4.5,0,0,0,0,9H42.7v37.4H4.5A4.5,4.5,0,0,0,0,127.3a4.5,4.5,0,0,0,4.5,4.5H42.7v37.5H4.5A4.5,4.5,0,0,0,0,173.8a4.5,4.5,0,0,0,4.5,4.5H42.7v37.4H4.5a4.5,4.5,0,0,0,0,9H42.7v7l9-2v-9.5h0V127.4h0V59.4a7.7,7.7,0,0,1,7.7-7.7H246.2a7.8,7.8,0,0,1,7.1,4.7c1.3-3.2,2.6-6.4,3.8-9.6A16.4,16.4,0,0,0,246.2,42.7Z"/></g></g></g></svg>