<svg xmlns="http://www.w3.org/2000/svg" viewBox="0 0 216.3 313.6"><defs><style>.cls-1{fill:#fff;}.cls-2{fill:#daf3fa;}.cls-3{fill:#33c4e5;}</style></defs><title>featureThree-Tools</title><g id="Layer_2" data-name="Layer 2"><g id="Layer_1-2" data-name="Layer 1"><rect class="cls-1" x="144.9" y="189.2" width="59.2" height="112.21"/><path class="cls-2" d="M93.2,16.8a1.5,1.5,0,0,0-2.1,1.3V59.8a20.4,20.4,0,1,1-40.8,0V18.1a1.5,1.5,0,0,0-2.2-1.3,54,54,0,0,0-3.7,96.3V287.3a26.3,26.3,0,1,0,52.6,0V113.2a54.1,54.1,0,0,0-3.8-96.4Z"/><path class="cls-2" d="M216.3,208.1v97.1a8.3,8.3,0,0,1-8.4,8.4H165.4a8.4,8.4,0,0,1-8.4-8.4V208.1a8.4,8.4,0,0,1,8.4-8.3h8.9V97.3h-2.8a10.3,10.3,0,0,1-7.2-3.5,10.7,10.7,0,0,1-2.5-8.4l9.5-65.8a2.4,2.4,0,0,1,2.4-2.2h25.9a2.6,2.6,0,0,1,2.5,2.2l9.4,65.8a10.7,10.7,0,0,1-2.5,8.4,10.2,10.2,0,0,1-7.2,3.5H199V199.8h8.9A8.3,8.3,0,0,1,216.3,208.1Z"/><path class="cls-3" d="M58.6,306a30.8,30.8,0,0,1-30.8-30.8V103.5A59,59,0,0,1,0,56,58.4,58.4,0,0,1,34.1.6a5.7,5.7,0,0,1,5.8.4,5.8,5.8,0,0,1,2.7,5V47.6a16,16,0,0,0,16,16,16,16,0,0,0,15.9-16V6A6,6,0,0,1,77.2.9,6,6,0,0,1,83,.6h0a58.5,58.5,0,0,1,6.3,103V275.2A30.8,30.8,0,0,1,58.6,306ZM33.6,10.9A49.5,49.5,0,0,0,34.5,97l2.3,1.3V275.2a21.8,21.8,0,1,0,43.5,0V98.4l2.3-1.3a49.6,49.6,0,0,0,.9-86.2V47.6a25,25,0,1,1-49.9,0ZM79.2,8.7Z"/><path class="cls-3" d="M195.8,306H153.2a12.9,12.9,0,0,1-12.8-12.9V196a12.8,12.8,0,0,1,12.8-12.8h4.5V89.5a14.9,14.9,0,0,1-8.9-4.9,14.7,14.7,0,0,1-3.6-11.9l9.5-65.9a6.9,6.9,0,0,1,6.9-6h25.9a7.1,7.1,0,0,1,6.9,6l9.4,65.8a14.8,14.8,0,0,1-12.5,16.9v93.7h4.5A12.8,12.8,0,0,1,208.7,196v97.1A12.9,12.9,0,0,1,195.8,306ZM153.2,192.2a3.8,3.8,0,0,0-3.8,3.8v97.1a3.9,3.9,0,0,0,3.8,3.9h42.6a4,4,0,0,0,3.9-3.9V196a3.9,3.9,0,0,0-3.9-3.8H182.3V80.7h7.2a6.4,6.4,0,0,0,4-2,6.3,6.3,0,0,0,1.4-4.8L185.7,9.8H163.3l-9.2,64.1a6.1,6.1,0,0,0,1.5,4.8,5.9,5.9,0,0,0,4,2h7.1V192.2ZM163.6,8.1Z"/></g></g></svg>