<?xml version="1.0" encoding="UTF-8"?>
<svg width="13px" height="24px" viewBox="0 0 13 24" version="1.1" xmlns="http://www.w3.org/2000/svg" xmlns:xlink="http://www.w3.org/1999/xlink">
    <!-- Generator: Sketch 52.6 (67491) - http://www.bohemiancoding.com/sketch -->
    <title>Path 2</title>
    <desc>Created with Sketch.</desc>
    <g id="Page-1" stroke="none" stroke-width="1" fill="none" fill-rule="evenodd">
        <g id="Forge-Landing-Page-Design" transform="translate(-906.000000, -4549.000000)" fill="#FFFFFF" fill-rule="nonzero">
            <g id="Group-17" transform="translate(874.500000, 4525.076776)">
                <g id="Group-16" transform="translate(30.956142, 23.385783)">
                    <g id="Group-15" transform="translate(0.517940, 0.000000)">
                        <path d="M12.0778231,0.834236097 L8.40285145,0.834236097 C4.94022698,0.834236097 3.20891475,2.50019797 3.20891475,5.83212173 C3.20891475,7.62949221 3.20891475,8.52817745 3.20891475,8.52817745 C1.35633065,8.52817745 0.430038603,8.52817745 0.430038603,8.52817745 C0.430038603,11.0616329 0.430038603,12.3283606 0.430038603,12.3283606 L3.15150762,12.3283606 L3.15150762,23.754534 L8.19693604,23.754534 L8.19693604,12.3283606 L11.5964173,12.3283606 L12.0778231,8.48099211 L8.19693604,8.48099211 L8.19693604,6.19413251 C8.10026612,5.18846426 8.56388924,4.68563014 9.58780539,4.68563014 C10.6117215,4.68563014 11.4417275,4.68563014 12.0778231,4.68563014 L12.0778231,0.834236097 Z" id="Path-2"></path>
                    </g>
                </g>
            </g>
        </g>
    </g>
</svg>