<?xml version="1.0" encoding="UTF-8"?>
<svg width="24px" height="25px" viewBox="0 0 24 25" version="1.1" xmlns="http://www.w3.org/2000/svg" xmlns:xlink="http://www.w3.org/1999/xlink">
    <!-- Generator: Sketch 52.6 (67491) - http://www.bohemiancoding.com/sketch -->
    <title>Mask</title>
    <desc>Created with Sketch.</desc>
    <defs>
        <path d="M11.4495363,5.97251329 C8.2114057,5.97251329 5.5995173,8.73594252 5.5995173,12.1619484 C5.5995173,15.5879542 8.2114057,18.3513834 11.4495363,18.3513834 C14.687667,18.3513834 17.2995554,15.5879542 17.2995554,12.1619484 C17.2995554,8.73594252 14.687667,5.97251329 11.4495363,5.97251329 Z M11.4495363,16.1858892 C9.35697078,16.1858892 7.64626025,14.3813106 7.64626025,12.1619484 C7.64626025,9.94258609 9.35187938,8.13800754 11.4495363,8.13800754 C13.5471933,8.13800754 15.2528124,9.94258609 15.2528124,12.1619484 C15.2528124,14.3813106 13.5421019,16.1858892 11.4495363,16.1858892 Z M18.9033465,5.71933362 C18.9033465,6.52196706 18.2923784,7.16299645 17.5388512,7.16299645 C16.7802325,7.16299645 16.1743559,6.51658026 16.1743559,5.71933362 C16.1743559,4.92208698 16.7853239,4.27567078 17.5388512,4.27567078 C18.2923784,4.27567078 18.9033465,4.92208698 18.9033465,5.71933362 Z M22.7779022,7.18454366 C22.6913484,5.25068188 22.2738535,3.53767896 20.9348152,2.12633694 C19.6008683,0.714994911 17.981803,0.273277178 16.1539903,0.176314749 C14.2701721,0.0631919146 8.62380913,0.0631919146 6.73999099,0.176314749 C4.91726965,0.267890376 3.29820434,0.709608109 1.95916604,2.12095013 C0.620127738,3.53229216 0.207724308,5.24529507 0.116079101,7.17915686 C0.00915969343,9.17227346 0.00915969343,15.1462365 0.116079101,17.1393531 C0.202632908,19.0732148 0.620127738,20.7862177 1.95916604,22.1975598 C3.29820434,23.6089018 4.91217825,24.0506195 6.73999099,24.147582 C8.62380913,24.2607048 14.2701721,24.2607048 16.1539903,24.147582 C17.981803,24.0560063 19.6008683,23.6142886 20.9348152,22.1975598 C22.2687621,20.7862177 22.686257,19.0732148 22.7779022,17.1393531 C22.8848216,15.1462365 22.8848216,9.17766026 22.7779022,7.18454366 Z M20.3442128,19.2779133 C19.9470836,20.3337264 19.1782821,21.1471335 18.1752762,21.5726908 C16.6733131,22.2029466 13.1093329,22.0575029 11.4495363,22.0575029 C9.78973981,22.0575029 6.22066815,22.1975598 4.72379644,21.5726908 C3.72588197,21.1525203 2.95708051,20.3391132 2.55485988,19.2779133 C1.95916604,17.6888068 2.09663385,13.9180457 2.09663385,12.1619484 C2.09663385,10.405851 1.96425744,6.62970309 2.55485988,5.04598341 C2.95198911,3.9901703 3.72079057,3.17676325 4.72379644,2.75120592 C6.22575955,2.12095013 9.78973981,2.26639378 11.4495363,2.26639378 C13.1093329,2.26639378 16.6784045,2.12633694 18.1752762,2.75120592 C19.1731907,3.17137645 19.9419922,3.98478349 20.3442128,5.04598341 C20.9399066,6.63508989 20.8024388,10.405851 20.8024388,12.1619484 C20.8024388,13.9180457 20.9399066,17.6941936 20.3442128,19.2779133 Z" id="path-1"></path>
    </defs>
    <g id="Page-1" stroke="none" stroke-width="1" fill="none" fill-rule="evenodd">
        <g id="Forge-Landing-Page-Design" transform="translate(-991.000000, -4548.000000)">
            <g id="Group-17" transform="translate(874.500000, 4525.076776)">
                <g id="Group-16" transform="translate(30.956142, 23.385783)">
                    <g id="Group-15" transform="translate(0.517940, 0.000000)">
                        <g id="Brands/instagram" transform="translate(85.736611, 0.097051)">
                            <mask id="mask-2" fill="white">
                                <use xlink:href="#path-1"></use>
                            </mask>
                            <use id="Mask" fill="#FFFFFF" fill-rule="nonzero" xlink:href="#path-1"></use>
                        </g>
                    </g>
                </g>
            </g>
        </g>
    </g>
</svg>