<?xml version="1.0" encoding="UTF-8"?>
<svg width="28px" height="23px" viewBox="0 0 28 23" version="1.1" xmlns="http://www.w3.org/2000/svg" xmlns:xlink="http://www.w3.org/1999/xlink">
    <!-- Generator: Sketch 52.6 (67491) - http://www.bohemiancoding.com/sketch -->
    <title>Mask</title>
    <desc>Created with Sketch.</desc>
    <defs>
        <path d="M24.2439904,5.71748102 C24.2611428,5.96317984 24.2611428,6.20893268 24.2611428,6.45463149 C24.2611428,13.9487695 18.6888302,22.5837756 8.50426426,22.5837756 C5.36658937,22.5837756 2.45184287,21.6535452 0,20.0389452 C0.445804007,20.0915641 0.874402839,20.1091217 1.33735924,20.1091217 C3.92631574,20.1091217 6.3096018,19.2140606 8.21277906,17.6871408 C5.77808858,17.6344679 3.73774492,16.0022563 3.03476051,13.7557436 C3.3777029,13.8083625 3.72059253,13.8434778 4.08068732,13.8434778 C4.57789574,13.8434778 5.07515694,13.7732472 5.53806057,13.6504518 C3.00050849,13.1238849 1.09727845,10.842311 1.09727845,8.08684309 L1.09727845,8.01666658 C1.83451489,8.43788771 2.69187089,8.70114416 3.60052574,8.7362054 C2.1088477,7.71824084 1.13158325,5.98073747 1.13158325,4.01503889 C1.13158325,2.96201309 1.40586328,1.99672143 1.88597208,1.15427919 C4.61214776,4.59422469 8.70998748,6.84068333 13.3049828,7.08643617 C13.2192736,6.66521504 13.1678164,6.22649031 13.1678164,5.78771155 C13.1678164,2.66364138 15.6368117,0.11881102 18.705877,0.11881102 C20.3004167,0.11881102 21.7406375,0.803288594 22.7522595,1.90898729 C24.0038568,1.66328848 25.2040496,1.18939445 26.2671289,0.540032144 C25.8555769,1.85636842 24.981174,2.96206711 23.8324384,3.6640483 C24.946922,3.54125291 26.0271008,3.22526954 27.0215177,2.78654481 C26.2672344,3.90974711 25.3241692,4.91010001 24.2439904,5.71748102 Z" id="path-1"></path>
    </defs>
    <g id="Page-1" stroke="none" stroke-width="1" fill="none" fill-rule="evenodd">
        <g id="Forge-Landing-Page-Design" transform="translate(-943.000000, -4549.000000)">
            <g id="Group-17" transform="translate(874.500000, 4525.076776)">
                <g id="Group-16" transform="translate(30.956142, 23.385783)">
                    <g id="Group-15" transform="translate(0.517940, 0.000000)">
                        <g id="Brands/twitter" transform="translate(37.332605, 0.905865)">
                            <mask id="mask-2" fill="white">
                                <use xlink:href="#path-1"></use>
                            </mask>
                            <use id="Mask" fill="#FFFFFF" fill-rule="nonzero" xlink:href="#path-1"></use>
                        </g>
                    </g>
                </g>
            </g>
        </g>
    </g>
</svg>