<?xml version="1.0" encoding="UTF-8"?>
<svg width="148px" height="47px" viewBox="0 0 148 47" version="1.1" xmlns="http://www.w3.org/2000/svg" xmlns:xlink="http://www.w3.org/1999/xlink">
    <!-- Generator: Sketch 52.6 (67491) - http://www.bohemiancoding.com/sketch -->
    <title>Group 24 Copy</title>
    <desc>Created with Sketch.</desc>
    <defs>
        <polygon id="path-1" points="0.000120683974 0.19323719 46.2709599 0.19323719 46.2709599 46.6434596 0.000120683974 46.6434596"></polygon>
    </defs>
    <g id="Page-1" stroke="none" stroke-width="1" fill="none" fill-rule="evenodd">
        <g id="Forge-Landing-Page-Design" transform="translate(-232.000000, -69.000000)">
            <g id="Group-24-Copy" transform="translate(306.267137, 92.737920) rotate(-360.000000) translate(-306.267137, -92.737920) translate(232.267137, 68.737920)">
                <path d="M71.7937498,15.3610239 L60.6141899,15.3610239 C60.5176427,15.3610239 60.4536802,15.4252344 60.4536802,15.5221559 L60.4536802,22.3908596 C60.4536802,22.4883868 60.5176427,22.5525973 60.6141899,22.5525973 L68.2275384,22.5525973 C68.5165765,22.5525973 68.7096709,22.7458345 68.7096709,23.0365989 L68.7096709,24.7454457 C68.7096709,25.0362101 68.5165765,25.2294473 68.2275384,25.2294473 L60.6141899,25.2294473 C60.5176427,25.2294473 60.4536802,25.2936578 60.4536802,25.3905792 L60.4536802,34.775001 C60.4536802,35.0651597 60.2605858,35.2590026 59.9715477,35.2590026 L57.8517337,35.2590026 C57.5626956,35.2590026 57.3696012,35.0651597 57.3696012,34.775001 L57.3696012,13.1681756 C57.3696012,12.8774111 57.5626956,12.6841739 57.8517337,12.6841739 L71.7937498,12.6841739 C72.0827879,12.6841739 72.2752789,12.8774111 72.2752789,13.1681756 L72.2752789,14.8770223 C72.2752789,15.1677867 72.0827879,15.3610239 71.7937498,15.3610239" id="Fill-1" fill="#FFFFFF"></path>
                <path d="M85.8639323,27.9382208 L85.8639323,20.1015138 C85.8639323,17.1023999 83.904628,15.1033945 80.9810587,15.1033945 C78.0900741,15.1033945 76.1301664,17.1023999 76.1301664,20.1015138 L76.1301664,27.9382208 C76.1301664,30.9046237 78.0900741,32.8727354 80.9810587,32.8727354 C83.904628,32.8727354 85.8639323,30.9046237 85.8639323,27.9382208 M73.0460874,27.8091941 L73.0460874,20.133619 C73.0460874,15.5219741 76.2267136,12.4265445 80.9810587,12.4265445 C85.7673852,12.4265445 88.9480113,15.5219741 88.9480113,20.133619 L88.9480113,27.8091941 C88.9480113,32.4529442 85.7673852,35.5489796 80.9810587,35.5489796 C76.2267136,35.5489796 73.0460874,32.4529442 73.0460874,27.8091941" id="Fill-3" fill="#FFFFFF"></path>
                <path d="M96.7225333,15.4899901 L96.7225333,22.6488525 C96.7225333,22.7463797 96.7864958,22.8105902 96.883043,22.8105902 L102.216068,22.8105902 C104.46441,22.8105902 105.97477,21.2949806 105.97477,19.1021323 C105.97477,16.8444677 104.46441,15.3282523 102.216068,15.3282523 L96.883043,15.3282523 C96.7864958,15.3282523 96.7225333,15.3930686 96.7225333,15.4899901 M106.038733,34.9039672 L101.605407,25.3584134 C101.573426,25.294203 101.476878,25.2293867 101.412313,25.2293867 L96.883043,25.2293867 C96.7864958,25.2293867 96.7225333,25.294203 96.7225333,25.3905187 L96.7225333,34.7749404 C96.7225333,35.0650991 96.5294389,35.2589421 96.2404008,35.2589421 L94.1205868,35.2589421 C93.8309452,35.2589421 93.6384543,35.0650991 93.6384543,34.7749404 L93.6384543,13.135404 C93.6384543,12.8458511 93.8309452,12.6520081 94.1205868,12.6520081 L102.60105,12.6520081 C106.48828,12.6520081 109.058246,15.2319366 109.058246,19.0694213 C109.058246,22.0685351 107.355998,24.2613835 104.656901,24.9713333 C104.560957,25.0034385 104.528976,25.0682548 104.560957,25.1651762 L109.122812,34.6786247 C109.283321,35.0329939 109.122812,35.2589421 108.769208,35.2589421 L106.584828,35.2589421 C106.327771,35.2589421 106.13528,35.1299153 106.038733,34.9039672" id="Fill-5" fill="#FFFFFF"></path>
                <path d="M112.720823,28.0997162 L112.720823,19.8438238 C112.720823,15.3612056 115.868865,12.4263022 120.559247,12.4263022 C125.24963,12.4263022 128.36569,15.3927051 128.36569,19.4246385 L128.36569,19.6178757 C128.36569,19.9086401 128.172596,20.1018773 127.883558,20.1018773 L125.763744,20.1018773 C125.474102,20.1018773 125.281611,19.9728506 125.281611,19.7796134 L125.281611,19.4888489 C125.281611,16.9410257 123.418251,15.1352575 120.559247,15.1352575 C117.700244,15.1352575 115.804902,16.9410257 115.804902,19.7469024 L115.804902,28.1960319 C115.804902,31.0019086 117.796791,32.8076768 120.687776,32.8076768 C123.482213,32.8076768 125.281611,31.259962 125.281611,28.6473225 L125.281611,26.1964207 C125.281611,26.100105 125.217045,26.0358945 125.121102,26.0358945 L120.976814,26.0358945 C120.687776,26.0358945 120.495285,25.8414458 120.495285,25.5518929 L120.495285,23.8745457 C120.495285,23.584387 120.687776,23.3911498 120.976814,23.3911498 L127.883558,23.3911498 C128.172596,23.3911498 128.36569,23.584387 128.36569,23.8745457 L128.36569,27.8095575 C128.36569,32.8397821 125.24963,35.516632 120.559247,35.516632 C115.868865,35.516632 112.720823,32.5502291 112.720823,28.0997162" id="Fill-7" fill="#FFFFFF"></path>
                <path d="M147.254844,15.3610239 L136.043303,15.3610239 C135.946756,15.3610239 135.882793,15.4252344 135.882793,15.5221559 L135.882793,22.3908596 C135.882793,22.4883868 135.946756,22.5525973 136.043303,22.5525973 L143.688633,22.5525973 C143.977671,22.5525973 144.170765,22.7458345 144.170765,23.0365989 L144.170765,24.7454457 C144.170765,25.0362101 143.977671,25.2294473 143.688633,25.2294473 L136.043303,25.2294473 C135.946756,25.2294473 135.882793,25.2936578 135.882793,25.3905792 L135.882793,32.4210207 C135.882793,32.5173364 135.946756,32.5821527 136.043303,32.5821527 L147.254844,32.5821527 C147.543882,32.5821527 147.736373,32.7753898 147.736373,33.0661543 L147.736373,34.775001 C147.736373,35.0651597 147.543882,35.2590026 147.254844,35.2590026 L133.280243,35.2590026 C132.991205,35.2590026 132.798714,35.0651597 132.798714,34.775001 L132.798714,13.1681756 C132.798714,12.8774111 132.991205,12.6841739 133.280243,12.6841739 L147.254844,12.6841739 C147.543882,12.6841739 147.736373,12.8774111 147.736373,13.1681756 L147.736373,14.8770223 C147.736373,15.1677867 147.543882,15.3610239 147.254844,15.3610239" id="Fill-9" fill="#FFFFFF"></path>
                <g id="Group-13" transform="translate(0.000000, 0.412704)">
                    <mask id="mask-2" fill="white">
                        <use xlink:href="#path-1"></use>
                    </mask>
                    <g id="Clip-12"></g>
                    <path d="M46.2709599,23.4182878 C46.2709599,36.2452392 35.9126543,46.6437019 23.135842,46.6437019 C10.3578228,46.6437019 0.000120683974,36.2452392 0.000120683974,23.4182878 C0.000120683974,10.5913364 10.3578228,0.192873734 23.135842,0.192873734 C35.9126543,0.192873734 46.2709599,10.5913364 46.2709599,23.4182878" id="Fill-11" fill="#42BDDF" mask="url(#mask-2)"></path>
                </g>
                <path d="M33.895301,21.4742248 C34.1451169,22.062417 34.7268136,22.4755448 35.4032473,22.4755448 C36.3065668,22.4755448 37.0415322,21.73773 37.0415322,20.8309085 C37.0415322,19.9228754 36.3065668,19.1850607 35.4032473,19.1850607 C34.7268136,19.1850607 34.1451169,19.5987942 33.8946976,20.1869864 L32.0530602,20.1869864 C31.8828958,20.1869864 31.7199724,20.2548315 31.5998918,20.3759833 L26.4068604,25.5885414 C26.2867799,25.7090874 26.2191968,25.8726424 26.2191968,26.0434665 L26.2191968,36.6709062 C26.2191968,37.0264869 26.5058213,37.3142225 26.8600287,37.3142225 C27.2136328,37.3142225 27.5008606,37.0264869 27.5008606,36.6709062 L27.5008606,26.3100006 L32.3185649,21.4742248 L33.895301,21.4742248 Z" id="Fill-14" fill="#FEFEFE"></path>
                <path d="M12.0110122,25.2501643 C11.8909316,25.1296182 11.7280083,25.0611674 11.5578439,25.0611674 L9.2781236,25.0611674 C9.0319283,24.4644946 8.44661102,24.0428861 7.76414315,24.0428861 C6.8608236,24.0428861 6.12585819,24.7813066 6.12585819,25.6887339 C6.12585819,26.5955555 6.8608236,27.3327644 7.76414315,27.3327644 C8.4339392,27.3327644 9.00899834,26.9275115 9.26303811,26.3484057 L11.2923391,26.3484057 L14.9297541,30.000528 L14.9297541,36.6711485 C14.9297541,37.0261234 15.216982,37.3144648 15.570586,37.3144648 C15.9247935,37.3144648 16.2114179,37.0261234 16.2114179,36.6711485 L16.2114179,29.7333882 C16.2114179,29.5631699 16.1444383,29.3996149 16.0237543,29.278463 L12.0110122,25.2501643 Z" id="Fill-16" fill="#FEFEFE"></path>
                <path d="M14.6713094,20.3756804 C14.5512288,20.2551343 14.3883055,20.1866836 14.2181411,20.1866836 L12.3759002,20.1866836 C12.1260844,19.5990971 11.5443876,19.1847578 10.8679539,19.1847578 C9.96463439,19.1847578 9.22906557,19.9231783 9.22906557,20.8306056 C9.22906557,21.7374271 9.96463439,22.4758476 10.8679539,22.4758476 C11.5443876,22.4758476 12.1260844,22.0621141 12.3759002,21.4739219 L13.9526363,21.4739219 L18.7703406,26.3103035 L18.7703406,36.6706033 C18.7703406,37.026184 19.0575684,37.3145254 19.4111725,37.3145254 C19.7647765,37.3145254 20.0520044,37.026184 20.0520044,36.6706033 L20.0520044,26.0431637 C20.0520044,25.8723396 19.9844214,25.7093903 19.8643408,25.5882385 L14.6713094,20.3756804 Z" id="Fill-18" fill="#FEFEFE"></path>
                <path d="M29.3501615,17.0339491 C29.4708455,16.9134031 29.5384285,16.7492423 29.5384285,16.5784182 L29.5384285,14.1499295 C30.1237458,13.8985394 30.5358816,13.3151933 30.5358816,12.6361372 C30.5358816,11.7287099 29.8009162,10.9902894 28.8969932,10.9902894 C27.9936737,10.9902894 27.2581048,11.7287099 27.2581048,12.6361372 C27.2581048,13.3151933 27.6702406,13.8991452 28.2567647,14.1499295 L28.2567647,16.3118842 L23.1234719,21.4565972 L17.9986269,16.3118842 L17.9986269,14.1499295 C18.585151,13.8985394 18.9972868,13.3151933 18.9972868,12.6361372 C18.9972868,11.7287099 18.261718,10.9902894 17.357795,10.9902894 C16.4544755,10.9902894 15.7189066,11.7287099 15.7189066,12.6361372 C15.7189066,13.3151933 16.1310424,13.8991452 16.7169631,14.1499295 L16.7169631,16.5784182 C16.7169631,16.7486366 16.7845461,16.9127973 16.9046267,17.0333434 L22.4947084,22.6457025 L22.4947084,36.6708456 C22.4947084,37.0264263 22.7819362,37.3141619 23.1355403,37.3141619 C23.4897477,37.3141619 23.7763722,37.0264263 23.7763722,36.6708456 L23.7763722,22.6208664 L29.3501615,17.0339491 Z" id="Fill-20" fill="#FEFEFE"></path>
                <path d="M38.5069374,24.042765 C37.8238661,24.042765 37.2385488,24.4643734 36.9929569,25.061652 L34.7132367,25.061652 C34.5430723,25.061652 34.3801489,25.129497 34.2600683,25.2500431 L30.2473262,29.2789477 C30.1266422,29.3994937 30.0590592,29.5630487 30.0590592,29.7338728 L30.0590592,36.6710274 C30.0590592,37.026608 30.3462871,37.3143436 30.6998911,37.3143436 C31.0540986,37.3143436 31.3413264,37.026608 31.3413264,36.6710274 L31.3413264,30.0004069 L34.9787414,26.3488903 L37.0080424,26.3488903 C37.2620822,26.9273904 37.8377448,27.3332491 38.5069374,27.3332491 C39.4102569,27.3332491 40.1458258,26.5954343 40.1458258,25.6886128 C40.1458258,24.7811855 39.4102569,24.042765 38.5069374,24.042765" id="Fill-22" fill="#FEFEFE"></path>
            </g>
        </g>
    </g>
</svg>